<svg version="1.1" xmlns="http://www.w3.org/2000/svg" x="0" y="0" viewBox="0 0 266.7 133" xml:space="preserve"><g fill="#EEF"><path d="M241.2 119.2c-1.8 0-3.2-1.4-3.2-3.2s1.4-3.2 3.2-3.2 3.2 1.4 3.2 3.2-1.4 3.2-3.2 3.2zm0-5.4c-1.2 0-2.2 1-2.2 2.2s1 2.2 2.2 2.2 2.2-1 2.2-2.2-1-2.2-2.2-2.2zM228.6 54.8a4 4 0 0 1-4.1-4.5 4 4 0 0 1 1.5-2.8c.2-.2.5-.2.7.1.2.2.1.5-.1.7-.6.5-1 1.3-1.1 2.1s.2 1.6.7 2.3a3.2 3.2 0 0 0 4.4.4c.2-.2.5-.2.7.1.2.2.1.5-.1.7-.8.6-1.7.9-2.6.9zM167 88.7a.8.8 0 0 1-.4-.2 4.1 4.1 0 0 1 .5-5.8 4.2 4.2 0 0 1 5.8.5c.2.2.1.5-.1.7-.2.2-.5.2-.7-.1a3.2 3.2 0 0 0-4.4-.4 3.2 3.2 0 0 0-.4 4.4c.2.2.1.5-.1.7l-.2.2zM193.5 109.3c-1.6 0-3-1.3-3-3s1.3-3 3-3 3 1.3 3 3-1.4 3-3 3zm0-5c-1.1 0-2 .9-2 2s.9 2 2 2 2-.9 2-2-.9-2-2-2zM185 36.7c-1.6 0-3-1.3-3-3s1.3-3 3-3 3 1.3 3 3-1.3 3-3 3zm0-4.9c-1.1 0-2 .9-2 2s.9 2 2 2 2-.9 2-2-.9-2-2-2zM158.1 118.5a9.4 9.4 0 1 1 0-18.8 9.4 9.4 0 0 1 0 18.8zm0-17.9a8.4 8.4 0 1 0 0 16.8 8.4 8.4 0 0 0 0-16.8z"/><path d="m157.2 112.3-.4-.2-2-2.7c-.2-.2-.1-.5.1-.7.2-.2.5-.1.7.1l1.6 2.1 3.6-5.3c.2-.2.5-.3.7-.1s.3.5.1.7l-4 5.9c0 .2-.2.2-.4.2zM239.1 32.7c-4.6 0-8.2-3.7-8.2-8.2s3.7-8.2 8.2-8.2 8.2 3.7 8.2 8.2-3.6 8.2-8.2 8.2zm0-15.5c-4 0-7.2 3.2-7.2 7.2s3.2 7.2 7.2 7.2 7.2-3.2 7.2-7.2-3.2-7.2-7.2-7.2z"/><path d="m237.2 27.1-.3-.1c-.2-.2-.3-.5-.1-.7l3.5-4.5c.2-.2.5-.3.7-.1s.3.5.1.7l-3.5 4.5c-.1.2-.3.2-.4.2z"/><path d="m241.2 26.6-.3-.1-4.5-3.5c-.2-.2-.3-.5-.1-.7.2-.2.5-.3.7-.1l4.5 3.5c.2.2.3.5.1.7l-.4.2zM247.6 55.9l19.1-14.3v-1.2l-.5.3L247 55.1c-1 .7-1.6 1.8-1.8 3s.1 2.4.9 3.4l18 24c.7.9 1.6 1.5 2.7 1.7v-1c-.7-.2-1.4-.6-1.9-1.3l-18-24c-.6-.8-.8-1.7-.7-2.7.1-.9.6-1.7 1.4-2.3z"/><path d="M256.4 63.7c-1.9 0-3.5-1.6-3.5-3.5s1.6-3.5 3.5-3.5 3.5 1.6 3.5 3.5-1.5 3.5-3.5 3.5zm0-5.9c-1.4 0-2.5 1.1-2.5 2.5s1.1 2.5 2.5 2.5 2.5-1.1 2.5-2.5-1.1-2.5-2.5-2.5zM266.7 52v1.1a.8.8 0 0 1-.4-.2c-.2-.2-.1-.5.1-.7l.3-.2zM266.7 63.5v-1.2l-6.5 4.9c-.4.3-.7.7-.7 1.2-.1.5 0 1 .4 1.4l4.5 6c.4.5.9.8 1.5.8l.9-.2v-1.2l-.3.2c-.4.3-.9.2-1.2-.2l-4.5-6-.2-.7.3-.6 5.8-4.4zM134.3 87.3c-1.4 0-2.8-.6-3.7-1.8l-18-24c-.7-1-1-2.2-.9-3.4s.8-2.3 1.8-3l19.2-14.4c2-1.5 4.9-1.1 6.4.9l18 24c.7 1 1 2.2.9 3.4s-.8 2.3-1.8 3L137 86.4c-.8.6-1.7.9-2.7.9zm-.8-45.8-19.2 14.4c-.8.6-1.3 1.4-1.4 2.3-.1.9.1 1.9.7 2.6l18 24a3.5 3.5 0 0 0 5 .7l19.2-14.4c.8-.6 1.3-1.4 1.4-2.3s-.1-1.9-.7-2.6l-18-24c-1.2-1.5-3.5-1.9-5-.7z"/><path d="M133.4 53.1a.8.8 0 0 1-.4-.2c-.2-.2-.1-.5.1-.7l4.2-3.2c.2-.2.5-.1.7.1.2.2.1.5-.1.7l-4.2 3.2-.3.1zM147.2 71.7a.8.8 0 0 1-.4-.2c-.2-.2-.1-.5.1-.7l4.2-3.2c.2-.2.5-.1.7.1s.1.5-.1.7l-4.2 3.2-.3.1zM132.4 76.5c-.6 0-1.1-.3-1.5-.8l-4.5-6c-.3-.4-.4-.9-.4-1.4.1-.5.3-.9.7-1.2l14-10.5c.8-.6 2-.5 2.6.4l4.5 6c.3.4.4.9.4 1.4-.1.5-.3.9-.7 1.2l-14 10.5c-.3.3-.7.4-1.1.4zm9-19-14 10.5c-.2.1-.3.3-.3.6s0 .5.2.7l4.5 6c.3.4.9.5 1.2.2L147 65c.2-.1.3-.3.3-.6s0-.5-.2-.7l-4.5-6c-.3-.5-.8-.5-1.2-.2zM136.5 132.6l-2.9-2.8-.3-.1h-.1l-.3.1-2.9 2.8-.1.4h1.2l2.1-2.1 2.1 2.1h1.2c.1-.1.1-.3 0-.4zM266.3 129.8l-2.9 2.8-.1.4h1.2l2.1-2.1v-1.2l-.3.1zM135.4 0l-2.1 2.1-2.1-2.1H130l.1.3 2.8 2.8.4.2.3-.1 2.8-2.8.1-.3-1.1-.1zM264.5 0h-1.2l.1.3 2.8 2.8.4.1V2.1L264.5 0zM165.8 19.9c-2.5 0-4.5-2-4.5-4.4s2-4.4 4.5-4.4 4.5 2 4.5 4.4-2 4.4-4.5 4.4zm0-7.9c-1.9 0-3.5 1.6-3.5 3.4s1.6 3.4 3.5 3.4 3.5-1.5 3.5-3.4-1.6-3.4-3.5-3.4zM161.8 30.2h-.2l-5.6-1.9c-.9-.3-1.5-.9-1.8-1.8-.3-.9-.1-1.8.4-2.5l.6-.8a7 7 0 0 1 8.1-2.6l1.3.5 1.5.7c.2.1.3.5.2.7s-.4.3-.7.2c-.4-.2-.8-.5-1.3-.6l-1.3-.5c-2.6-.9-5.4 0-7 2.2l-.6.8c-.3.5-.4 1-.2 1.6.2.5.6 1 1.1 1.1l5.6 1.9c.3.1.4.4.3.6 0 .3-.2.4-.4.4z"/><path d="M169.6 32.6c-.4 0-.8-.2-1-.5l-.8-1.2-.3-.1-1.4.4c-.5.2-1.1 0-1.4-.5-.3-.5-.3-1 0-1.5l.9-1.1v-.3l-.8-1.2c-.3-.5-.3-1 0-1.5s.9-.6 1.4-.5l1.4.5.3-.1.9-1.2c.3-.5.9-.6 1.4-.4s.9.6.9 1.2V26l.2.2 1.4.5c.5.2.9.6.9 1.2s-.4 1-.9 1.2l-1.4.4-.2.2v1.4c0 .6-.4 1-.9 1.2l-.6.3zm-2.1-2.8c.4 0 .8.2 1 .5l.8 1.2.3.1.2-.2V30c0-.5.4-1 .9-1.2l1.4-.4c.2 0 .2-.2.2-.2 0-.1 0-.2-.2-.2l-1.4-.5c-.5-.2-.9-.7-.9-1.2v-1.5l-.2-.2-.3.1-.9 1.1c-.3.4-.9.6-1.4.5l-1.4-.5c-.2-.1-.3 0-.3.1v.3l.8 1.2c.3.4.3 1 0 1.5l-.9 1.2v.3l.3.1 1.4-.4.6-.3zM226.4 100.7c-.8 0-1.6-.4-2-1.2l-3.9-7.1a2 2 0 0 1-.2-1.7c.2-.6.6-1.1 1.1-1.4 1.1-.6 2.5-.2 3.1.9l3.9 7.1c.3.5.4 1.2.2 1.7-.2.6-.6 1.1-1.1 1.4a2 2 0 0 1-1.1.3zm-3.9-10.6-.6.2c-.3.2-.5.4-.6.8-.1.3-.1.7.1 1l3.9 7.1c.3.6 1.1.8 1.7.5.3-.2.5-.4.6-.8s.1-.7-.1-1l-3.9-7.1c-.2-.5-.6-.7-1.1-.7zM220 104.2c-.8 0-1.6-.4-2-1.2l-1.5-2.8c-.3-.5-.4-1.2-.2-1.7s.6-1.1 1.1-1.4c1.1-.6 2.5-.2 3.1.9l1.5 2.8c.3.5.4 1.2.2 1.7-.2.6-.6 1.1-1.1 1.4-.3.3-.7.3-1.1.3zm-1.5-6.3-.6.2c-.3.2-.5.4-.6.8s-.1.7.1 1l1.5 2.8c.3.6 1.1.8 1.7.5.3-.2.5-.4.6-.8.1-.3.1-.7-.1-1l-1.5-2.8c-.2-.4-.7-.7-1.1-.7zM232.6 97.3c-.8 0-1.6-.4-2-1.2L223.9 84a2 2 0 0 1-.2-1.7c.2-.6.6-1.1 1.1-1.4 1.1-.6 2.5-.2 3.1.9l6.7 12.1c.3.5.4 1.2.2 1.7-.2.6-.6 1.1-1.1 1.4a2 2 0 0 1-1.1.3zm-6.7-15.7-.6.2c-.3.2-.5.4-.6.8-.1.3-.1.7.1 1l6.7 12.1c.3.6 1.1.8 1.7.5.3-.2.5-.4.6-.8.1-.3.1-.7-.1-1L227 82.3c-.2-.4-.6-.7-1.1-.7zM182.9 66.8l-.2-.1c-.2-.1-.4-.4-.2-.7l5.1-10.7c.1-.2.4-.3.7-.2.2.1.4.4.2.7l-5.1 10.7c-.1.2-.3.3-.5.3zM191.8 71.1l-.2-.1c-.2-.1-.4-.4-.2-.7l5.1-10.7c.1-.2.4-.3.7-.2.2.1.4.4.2.7l-5.1 10.7-.5.3zM200.7 75.3l-.2-.1c-.2-.1-.4-.4-.2-.7l5.1-10.7c.1-.2.4-.3.7-.2.2.1.4.4.2.7L201.2 75c-.1.2-.3.3-.5.3z"/><path d="m203.9 80.9-.2-.1-27.2-12.9-.3-.3v-.4l.5-1a2.8 2.8 0 0 1 3.8-1.4l23 10.9a3 3 0 0 1 1.3 3.9l-.5 1-.1.2-.3.1zm-26.6-13.7 26.3 12.5.3-.6a2 2 0 0 0-.8-2.6l-23-10.9a2 2 0 0 0-2.5 1l-.3.6zM208.1 65.4l-.9-.2-20.8-9.9a2 2 0 0 1-1.2-2.2c.1-.9.8-1.6 1.8-1.8l10.6-1.5a7 7 0 0 1 6.9 3.3l5.5 9.1c.5.8.4 1.8-.2 2.5-.6.5-1.2.7-1.7.7zm-9.6-14.6-.9.1-10.6 1.5c-.6.1-.9.5-.9.9s.1.9.6 1.2l20.8 9.9c.5.3 1 0 1.3-.2.3-.3.4-.8.1-1.3l-5.5-9.1c-1-2-2.9-3-4.9-3zm-.9-.5z"/><path d="M199 57.3c-.5 0-1-.2-1.3-.6-.3-.3-.4-.8-.4-1.2 0-.5.2-.9.6-1.2.7-.6 1.8-.5 2.4.2.3.3.4.8.4 1.2 0 .5-.2.9-.6 1.2-.3.3-.7.4-1.1.4zm0-2.4-.5.2-.2.5c0 .2 0 .4.2.5.3.3.7.3 1 .1l.2-.5c0-.2 0-.4-.2-.5-.1-.3-.3-.3-.5-.3z"/></g><g fill="#EEF"><path d="M107.9 119.2c-1.8 0-3.2-1.4-3.2-3.2s1.4-3.2 3.2-3.2 3.2 1.4 3.2 3.2-1.4 3.2-3.2 3.2zm0-5.4c-1.2 0-2.2 1-2.2 2.2s1 2.2 2.2 2.2 2.2-1 2.2-2.2-1-2.2-2.2-2.2zM95.2 54.8a4 4 0 0 1-4.1-4.5 4 4 0 0 1 1.5-2.8c.2-.2.5-.2.7.1.2.2.2.5-.1.7-.6.5-1 1.3-1.1 2.1-.1.8.2 1.6.7 2.3a3.2 3.2 0 0 0 4.4.4c.2-.2.5-.2.7.1.2.2.2.5-.1.7a4 4 0 0 1-2.6.9zM61.7 104.2l-.4-.2a4 4 0 0 1 1.4-5.6 4 4 0 0 1 5.6 1.4c.1.2.1.5-.2.7s-.5.1-.7-.2a3.2 3.2 0 0 0-4.3-1.1 3 3 0 0 0-1 4.3c.1.2.1.5-.2.7h-.2zM42.2 96.3c-1.6 0-3-1.3-3-3s1.3-3 3-3 3 1.3 3 3-1.4 3-3 3zm0-5c-1.1 0-2 .9-2 2s.9 2 2 2 2-.9 2-2-1-2-2-2zM51.7 36.7c-1.6 0-3-1.3-3-3s1.3-3 3-3 3 1.3 3 3-1.3 3-3 3zm0-4.9c-1.1 0-2 .9-2 2s.9 2 2 2 2-.9 2-2-.9-2-2-2zM24.8 118.5a9.4 9.4 0 1 1 0-18.8 9.4 9.4 0 0 1 0 18.8zm0-17.9a8.4 8.4 0 1 0 .1 16.8c4.7 0 8.5-3.8 8.5-8.4s-4-8.4-8.6-8.4z"/><path d="m23.9 112.3-.4-.2-2-2.7c-.2-.2-.1-.5.1-.7.2-.2.5-.1.7.1l1.6 2.1 3.6-5.3c.2-.2.5-.3.7-.1.2.2.3.5.1.7l-4 5.9c0 .2-.2.2-.4.2zM105.8 32.7c-4.6 0-8.2-3.7-8.2-8.2s3.7-8.2 8.2-8.2 8.2 3.7 8.2 8.2-3.6 8.2-8.2 8.2zm0-15.5c-4 0-7.2 3.2-7.2 7.2s3.2 7.2 7.2 7.2 7.2-3.2 7.2-7.2-3.2-7.2-7.2-7.2z"/><path d="m103.9 27.1-.3-.1c-.2-.2-.3-.5-.1-.7l3.5-4.5c.2-.2.5-.3.7-.1.2.2.3.5.1.7l-3.5 4.5c-.1.2-.3.2-.4.2z"/><path d="m107.9 26.6-.3-.1-4.5-3.5c-.2-.2-.3-.5-.1-.7.2-.2.5-.3.7-.1l4.5 3.5c.2.2.3.5.1.7l-.4.2zM134.4 87.3c-1.4 0-2.8-.6-3.7-1.8l-18-24c-.7-1-1-2.2-.9-3.4.2-1.2.8-2.3 1.8-3l19.2-14.4c2-1.5 4.9-1.1 6.4.9l18 24c.7 1 1 2.2.9 3.4a4.5 4.5 0 0 1-1.8 3l-19.2 14.4c-.8.6-1.8.9-2.7.9zm-.9-45.8-19.2 14.4c-.8.6-1.3 1.4-1.4 2.3-.1.9.1 1.9.7 2.6l18 24a3.5 3.5 0 0 0 5 .7l19.2-14.4c.8-.6 1.3-1.4 1.4-2.3.1-.9-.1-1.9-.7-2.6l-18-24a3.6 3.6 0 0 0-5-.7z"/><path d="M123.1 63.7c-1.9 0-3.5-1.6-3.5-3.5s1.6-3.5 3.5-3.5 3.5 1.6 3.5 3.5-1.5 3.5-3.5 3.5zm0-5.9c-1.4 0-2.5 1.1-2.5 2.5s1.1 2.5 2.5 2.5 2.5-1.1 2.5-2.5-1.1-2.5-2.5-2.5zM133.4 53.1a.8.8 0 0 1-.4-.2c-.2-.2-.1-.5.1-.7l4.2-3.2c.2-.2.5-.1.7.1s.1.5-.1.7l-4.2 3.2-.3.1zM132.5 76.5c-.6 0-1.1-.3-1.5-.8l-4.5-6c-.3-.4-.4-.9-.4-1.4.1-.5.3-.9.7-1.2l14-10.5c.8-.6 2-.5 2.6.4l4.5 6c.3.4.4.9.4 1.4-.1.5-.3.9-.7 1.2l-14 10.5c-.3.3-.7.4-1.1.4zm9-19-14 10.5c-.2.1-.3.3-.3.6s0 .5.2.7l4.5 6c.3.4.8.5 1.2.2l14-10.5c.2-.1.3-.3.3-.6s0-.5-.2-.7l-4.5-6c-.3-.5-.8-.5-1.2-.2zM23.9 65.6l-18-24A4.4 4.4 0 0 0 0 40.4v1.2l.1-.1c.6-.5 1.4-.7 2.1-.7 1.1 0 2.2.5 2.9 1.4l18 24c.6.8.8 1.7.7 2.6-.1.9-.6 1.8-1.4 2.3L3.2 85.6c-1 .6-2.2.8-3.2.5v1l1 .1c1 0 1.9-.3 2.7-.9L23 72c1-.7 1.6-1.8 1.8-3 .2-1.2-.1-2.4-.9-3.4z"/><path d="M4.6 49.8.3 53l-.3.1V52l4-3c.2-.2.5-.1.7.1.1.3.1.6-.1.7zM13.9 71.7a.8.8 0 0 1-.4-.2c-.2-.2-.1-.5.1-.7l4.2-3.2c.2-.2.5-.1.7.1s.1.5-.1.7l-4.2 3.2-.3.1zM14.7 63.1l-4.5-6c-.6-.8-1.8-1-2.6-.4L0 62.2v1.2l8.1-6 .5-.2c.3 0 .5.1.7.4l4.5 6 .2.7c0 .2-.2.4-.4.6L0 75.1v1.2l.3-.2 14-10.4c.4-.3.7-.7.7-1.2.1-.5 0-1-.3-1.4zM103.1 102.4l-.7-.2-12.7-6.1c-.7-.3-1.2-.9-1.4-1.6s-.2-1.5.1-2.2l7-14.5c.7-1.4 2.4-2 3.8-1.3h.1l12.6 6c.4.2.7.5.8.9s.1.8-.1 1.2l-8.1 16.8a2 2 0 0 1-1.4 1zm-5.2-25.1c-.7 0-1.3.4-1.6 1l-7 14.5c-.2.4-.2.9-.1 1.4.2.5.5.8.9 1l12.7 6.1c.3.1.6 0 .7-.2l8.1-16.8c.1-.1.1-.3 0-.4l-.3-.3-12.7-6.1h-.1c-.1-.2-.3-.2-.6-.2z"/><path d="m96.2 80.2-.2-.1-1.9-.9c-.2-.1-.3-.4-.2-.7.1-.2.4-.4.7-.2l1.9.9c.2.1.3.4.2.7-.1.2-.3.3-.5.3zM94.3 84.1l-.2-.1-1.9-.9c-.2-.1-.3-.4-.2-.7.1-.2.4-.4.7-.2l1.9.9c.2.1.3.4.2.7-.1.2-.3.3-.5.3zM92.5 87.9l-.2-.1-1.9-.9c-.2-.1-.3-.4-.2-.7.1-.2.4-.4.7-.2l1.9.9c.2.1.3.4.2.7-.1.2-.3.3-.5.3zM90.7 91.7l-.2-.1-1.9-.9c-.2-.1-.3-.4-.2-.7.1-.2.4-.3.7-.2l1.9.9c.2.1.3.4.2.7-.2.2-.3.3-.5.3zM91.3 96.6l-.2-.1c-.2-.1-.3-.4-.2-.7l8.8-18.3c.1-.2.4-.3.7-.2.2.1.3.4.2.7l-8.8 18.3c-.1.2-.3.3-.5.3zM3.2 132.6l-2.8-2.8-.3-.1v1.2l2.1 2.1h1.2l-.2-.4zM136.5 132.6l-2.9-2.8-.2-.1h-.4l-.2.1-2.8 2.8-.1.4h1.2l2.1-2.1 2.1 2.1h1.2c.2-.1.1-.2 0-.4z"/><path d="m3.2 132.6-2.8-2.8-.3-.1v1.2l2.1 2.1h1.2l-.2-.4zM136.5 132.6l-2.9-2.8-.2-.1h-.4l-.2.1-2.8 2.8-.1.4h1.2l2.1-2.1 2.1 2.1h1.2c.2-.1.1-.2 0-.4zM2.1 0 0 2.1v1.2l.3-.2L3.2.3l.1-.3H2.1zM135.5 0l-2.1 2.1-2.2-2.1H130l.1.3 2.8 2.8.3.1.4-.1 2.8-2.8.1-.3h-1zM57.3 78.6l-.4-.2-8.2-11.8v-.5l6.2-13c.1-.2.2-.3.4-.3l14.4-1.2.4.2 8.2 11.8v.5l-6.2 13c-.1.2-.2.3-.4.3l-14.4 1.2c.1 0 0 0 0 0zm-7.6-12.4 7.9 11.4 13.8-1.1L77.3 64l-7.9-11.3-13.8 1.1-5.9 12.4zm22 10.7z"/><path d="m63.4 65.7-.4-.2-8.2-11.8c-.2-.2-.1-.5.1-.7s.5-.1.7.1l8 11.6 14.1-1.2c.3 0 .5.2.5.5s-.2.5-.5.5l-14.3 1.2c.1.1.1.1 0 0z"/><path d="m57.3 78.6-.2-.1c-.2-.1-.4-.4-.2-.7L63 65c.1-.2.4-.3.7-.2.2.1.4.4.2.7l-6.1 12.9-.5.2zM57.2 65H57c-.2-.1-.4-.4-.2-.7l2.5-5.3c.1-.2.2-.3.4-.3l13.7-1.6c.3 0 .5.2.6.4 0 .3-.2.5-.4.5L60 59.7l-2.4 5c-.1.2-.2.3-.4.3zM136.5 132.7l-2.9-2.8-.2-.1h-.4l-.2.1-2.9 2.8-.1.4h1.2l2.1-2.1 2.1 2.1h1.2c.3-.2.2-.3.1-.4zM32.2 39.7c-.2 0-.5 0-.7-.2l-11.7-6c-.4-.2-.6-.5-.8-.9-.1-.4-.1-.8.1-1.2l7.7-14.9c.4-.8 1.4-1.1 2.1-.7l.1.1L40.9 22c.3.2.5.4.6.8.1.3.1.7-.1 1l-2 3.8-5.8 11.3c-.3.5-.8.8-1.4.8zm-3.9-23.1c-.2 0-.4.1-.5.4l-7.7 14.9-.1.4.2.3 11.7 6c.3.1.6 0 .8-.3l7.9-15.1V23l-.1-.2-12-6.2h-.2z"/><path d="M20.9 29.1h-.1l-1-.2c-.4 0-.7-.2-1-.6-.3-.3-.4-.8-.3-1.2l2.3-16.5c.1-.9.9-1.5 1.7-1.4l13.4 2c.3.1.7.2.8.5.2.3.3.6.2 1l-.7 6.8c0 .3-.3.5-.5.5-.3 0-.5-.3-.5-.5l.7-6.9v-.2l-.2-.1-13.4-2c-.3 0-.6.2-.6.5l-2.3 16.5.1.5.3.2 1.1.2c.3.1.4.3.4.6.1.2-.1.3-.4.3zM26.6 29.8a.5.5 0 0 1-.5-.3c-.1-.3 0-.5.3-.6l8.5-3.5c.2-.1.5 0 .7.3.1.3 0 .5-.3.6l-8.5 3.5h-.2z"/><path d="M29.6 25.4c-.8 0-1.4-.6-1.4-1.4s.6-1.4 1.4-1.4 1.4.6 1.4 1.4-.6 1.4-1.4 1.4zm0-1.8c-.2 0-.4.2-.4.4s.2.4.4.4.4-.2.4-.4-.1-.4-.4-.4zM32.2 32.5c-.8 0-1.4-.6-1.4-1.4s.6-1.4 1.4-1.4 1.4.6 1.4 1.4-.6 1.4-1.4 1.4zm0-1.9c-.2 0-.4.2-.4.4s.2.4.4.4.4-.2.4-.4-.2-.4-.4-.4z"/></g></svg>